# xmcd
#
# Track frame offsets: 
#        150
#        11722
#        26767
#        41465
#        56915
#        73880
#        86187
#        99590
#        111672
#        124482
#
# Disc length: 1833 seconds
#
# Revision: 7
# Processed by: cddbd v1.5.1PL0 Copyright (c) Steve Scherf et al.
# Submitted via: ExactAudioCopy v0.95a5
#
DISCID=9807270a
DTITLE=George Strait - Holding My Own
DYEAR=1992
DGENRE=Country
TTITLE0=You're Right I'm Wrong
TTITLE1=Holding My Own
TTITLE2=Gone As A Girl Can Get
TTITLE3=So Much Like My Dad
TTITLE4=Trains Make Me Lonesome
TTITLE5=All Of Me (Loves All Of You)
TTITLE6=Wonderland Of Love
TTITLE7=Faults And All
TTITLE8=It's Alright With Me
TTITLE9=Here We Go Again
EXTD=YEAR: 1992 ID3G: 2
EXTT0=
EXTT1=
EXTT2=
EXTT3=
EXTT4=
EXTT5=
EXTT6=
EXTT7=
EXTT8=
EXTT9=
PLAYORDER=
